<svg width="512" height="512" viewBox="0 0 512 512" fill="none" xmlns="http://www.w3.org/2000/svg">
<rect width="512" height="512" fill="#002127"/>
<path d="M180.652 291.768V315.952C180.652 324.512 187.612 331.487 196.187 331.487H314.098C322.673 331.487 329.633 324.512 329.633 315.952V291.768H362.216L362.275 291.738V315.922C362.275 324.483 369.25 331.458 377.811 331.458H401.98V364.07H377.811C369.25 364.07 362.275 371.03 362.275 379.591V403.834H329.692V379.62C329.692 371.06 322.717 364.085 314.157 364.085H196.129C187.568 364.085 180.593 371.06 180.593 379.62V403.834H148.01V379.591C148.01 371.03 141.035 364.07 132.475 364.07H108.305V331.458H132.475C141.035 331.458 148.01 324.483 148.01 315.922V291.738L148.069 291.768V222.225L148.01 222.255V198.071C148.01 189.51 141.035 182.535 132.475 182.535H108.305V149.923H132.475C141.035 149.923 148.01 142.962 148.01 134.402V110.159H180.593V134.372C180.593 142.933 187.568 149.908 196.129 149.908H314.157C322.717 149.908 329.692 142.933 329.692 134.372V110.159H362.275V134.402C362.275 142.962 369.25 149.923 377.811 149.923H401.98V182.535H377.811C369.25 182.535 362.275 189.51 362.275 198.071V222.255L362.216 222.225H329.633V198.041C329.633 189.481 322.673 182.506 314.098 182.506H196.187C187.612 182.506 180.652 189.481 180.652 198.041V291.768Z" fill="#1AF1F5"/>
</svg>
