<svg width="116" height="20" viewBox="0 0 116 20" fill="none" xmlns="http://www.w3.org/2000/svg">
<path fill-rule="evenodd" clip-rule="evenodd" d="M19.0596 8.71371C19.2818 8.00812 19.0345 7.24135 18.4439 6.80472L10.7682 1.13051C10.1616 0.682079 9.33257 0.684596 8.72322 1.13672L1.1243 6.77489C0.524907 7.21962 0.274524 7.99849 0.50311 8.70723L3.46987 17.9057C3.69846 18.6145 4.35452 19.0934 5.09753 19.094L14.5172 19.1011C15.2726 19.1016 15.9432 18.6079 16.1714 17.8833L19.0596 8.71371ZM90.3144 8.87138C92.0749 9.16688 93.5836 9.97333 94.3575 11.4479C94.669 12.0864 94.8246 12.7913 94.811 13.5034C94.7974 14.2154 94.6151 14.9137 94.2794 15.5395C93.4285 17.0338 91.9002 17.8996 89.9661 17.8996C89.4711 17.9252 88.9752 17.8722 88.4964 17.7424C86.0977 17.27 84.8593 15.244 84.4728 14.143L87.0453 13.1992C87.2309 13.751 87.5828 14.2299 88.0512 14.5685C88.5197 14.9071 89.0812 15.0884 89.6567 15.0869H89.8118C90.5077 15.0869 91.1273 14.8506 91.4367 14.3792C91.5712 14.1538 91.6547 13.9011 91.6814 13.6392C91.7081 13.3772 91.6772 13.1126 91.5909 12.8642C91.3586 12.3136 90.6628 11.7632 89.7338 11.6051C87.9353 11.3698 86.5622 10.6612 85.7103 9.42188C85.3723 8.94745 85.1358 8.40677 85.016 7.83444C84.8962 7.26211 84.8957 6.67076 85.0144 6.09821C85.2447 5.05444 85.8517 4.13549 86.7164 3.52165C87.7033 2.86828 88.8648 2.53844 90.0431 2.5769C90.8083 2.56388 91.5664 2.72713 92.2602 3.0543C92.954 3.38148 93.5654 3.86404 94.0481 4.46555C94.5185 5.04054 94.8613 5.71126 95.0533 6.43225L92.4418 7.29797C92.2541 6.78892 91.9303 6.34276 91.5068 6.00927C91.0832 5.67578 90.5765 5.46809 90.0431 5.40939C89.4049 5.31152 88.4193 5.64556 88.148 6.45201C87.6835 7.888 89.0956 8.67472 90.3144 8.87138ZM32.7179 2.85208C31.1507 2.67518 27.2442 2.87185 27.2442 2.87185V17.6638C27.2442 17.6638 30.9575 17.9395 32.7179 17.6638C36.5092 17.0935 39.2563 14.1039 39.2563 10.2683C39.2519 8.43565 38.5839 6.66832 37.3787 5.30138C36.1736 3.93444 34.5152 3.06293 32.7179 2.85208ZM32.7179 14.6346C31.9207 14.7214 31.1165 14.7214 30.3192 14.6346V5.98007C30.3192 5.98007 31.9636 5.82293 32.7179 5.98007C34.536 6.29436 36.0447 8.14349 36.0447 10.2683C36.0447 12.3922 34.6521 14.3203 32.7179 14.6346ZM43.5059 2.91107H40.4494V17.6635H43.5059V2.91107ZM51.5452 17.664L58.6057 2.91144H55.5493L51.5452 11.377L47.5607 2.91144H44.5043L51.5452 17.664ZM70.2695 14.9296V17.6634H59.6111V2.91204H70.2695V5.62582H62.6675V8.9307H68.2769V11.5862H62.6675V14.9296H70.2695ZM83.5907 8.00593C83.5907 9.93318 82.6237 11.2318 81.1735 12.2349L84.713 17.6636H80.8827L78.0585 13.159C76.8982 13.1985 74.964 13.1787 74.964 13.1787V17.6636H71.8881V2.91125H78.7358C81.4828 2.91125 83.5907 5.15369 83.5907 8.00593ZM74.964 10.4451C74.964 10.4451 77.9238 10.5232 78.7358 10.4253C79.819 10.2879 80.5733 9.30455 80.5733 7.98618C80.5733 6.66879 79.819 5.86228 78.7358 5.70422C77.8848 5.58659 74.964 5.66562 74.964 5.66562V10.4451ZM96.5754 2.91107H99.6318V17.6635H96.5754V2.91107ZM108.207 2.79327C104.184 2.79327 100.914 6.17719 100.914 10.3271C100.914 14.477 104.184 17.8609 108.207 17.8609C112.231 17.8609 115.5 14.477 115.5 10.3271C115.5 6.1772 112.231 2.79327 108.207 2.79327ZM108.207 14.7527C105.905 14.7527 104.029 12.7662 104.029 10.3271C104.029 7.88797 105.905 5.90151 108.207 5.90151C110.509 5.90151 112.385 7.88797 112.385 10.3271C112.385 12.7662 110.509 14.7527 108.207 14.7527ZM15.2158 11.1045C15.5805 10.5016 15.2325 9.75958 14.5725 9.51291C13.9047 9.26333 13.175 9.62693 12.727 10.1815C12.5187 10.4393 12.2777 10.6704 12.0087 10.8683C11.3915 11.3224 10.6552 11.581 9.89289 11.6112C9.13059 11.6415 8.37654 11.4422 7.72611 11.0384C7.44381 10.8631 7.18653 10.6528 6.95962 10.4135C6.46831 9.89524 5.71082 9.58921 5.06377 9.89128C4.42555 10.1892 4.1368 10.9559 4.54723 11.5283C5.04042 12.2162 5.66446 12.8028 6.38699 13.2513C7.46955 13.9234 8.72456 14.2552 9.9933 14.2048C11.262 14.1544 12.4875 13.7241 13.5148 12.9682C14.2005 12.4638 14.7773 11.8294 15.2158 11.1045Z" fill="#5B34E9"/>
</svg>
