<svg width="150" height="150" viewBox="0 0 150 150" fill="none" xmlns="http://www.w3.org/2000/svg">
<path fill-rule="evenodd" clip-rule="evenodd" d="M142.825 47.5162C148.902 51.9514 151.459 59.7776 149.172 66.9448L127.439 135.069C125.126 142.32 118.386 147.24 110.776 147.234L39.7654 147.182C32.2089 147.176 25.5119 142.315 23.1654 135.132L0.865148 66.8675C-1.48133 59.6846 1.05425 51.8072 7.15009 47.3417L64.4346 5.37815C70.5742 0.880621 78.9184 0.873318 85.0659 5.36009L142.825 47.5162ZM118.841 83.5791C121.846 78.7128 119.019 72.6799 113.654 70.7C108.288 68.7201 102.442 71.6361 98.8205 76.0626C97.137 78.1204 95.1883 79.9652 93.0141 81.5446C88.0258 85.1682 82.0749 87.2313 75.9141 87.4729C69.7532 87.7145 63.659 86.1237 58.4023 82.9018C56.1111 81.4976 54.0239 79.811 52.1844 77.8913C48.2276 73.762 42.1708 71.3127 36.9768 73.7067C31.7828 76.1007 29.4375 82.3364 32.8137 86.9526C36.7834 92.3801 41.7904 97.0115 47.5796 100.56C56.3288 105.922 66.4716 108.57 76.7256 108.168C86.9795 107.766 96.8839 104.332 105.186 98.3008C110.68 94.3102 115.309 89.3009 118.841 83.5791Z" fill="#5B34E9"/>
</svg>
